<svg xmlns="http://www.w3.org/2000/svg" width="67.381" height="59.894" viewBox="0 0 67.381 59.894"><path d="M66.637,26.46c0-11.828-6.429-18.717-16.845-18.717-5.553,0-9.261,2.119-11.428,6.452a1.872,1.872,0,0,1-3.348,0C32.85,9.862,29.142,7.743,23.588,7.743c-10.416,0-16.845,6.888-16.845,18.717,0,8.981,9.915,20.21,29.947,33.329C56.722,46.671,66.637,35.441,66.637,26.46ZM49.792,4c12.543,0,20.588,8.62,20.588,22.46,0,10.833-10.962,23.085-32.674,37.133a1.872,1.872,0,0,1-2.033,0C13.962,49.545,3,37.293,3,26.46,3,12.62,11.045,4,23.588,4c5.719,0,10.143,1.959,13.1,5.824C39.649,5.959,44.073,4,49.792,4Z" transform="translate(-3 -4)"/></svg>