<svg xmlns="http://www.w3.org/2000/svg" width="59.894" height="67.38" viewBox="0 0 59.894 67.38"><path d="M26.46,8.615a1.872,1.872,0,1,1-3.743,0A5.615,5.615,0,0,1,28.332,3h11.23a5.615,5.615,0,0,1,5.615,5.615,1.872,1.872,0,1,1-3.743,0,1.872,1.872,0,0,0-1.872-1.872H28.332A1.872,1.872,0,0,0,26.46,8.615Zm-13.1-1.872a1.872,1.872,0,1,1,0,3.743A5.615,5.615,0,0,0,7.743,16.1v44.92a5.615,5.615,0,0,0,5.615,5.615H54.535a5.615,5.615,0,0,0,5.615-5.615V16.1a5.615,5.615,0,0,0-5.615-5.615,1.872,1.872,0,1,1,0-3.743A9.358,9.358,0,0,1,63.894,16.1v44.92a9.358,9.358,0,0,1-9.358,9.358H13.358A9.358,9.358,0,0,1,4,61.022V16.1A9.358,9.358,0,0,1,13.358,6.743Z" transform="translate(-4 -3)"/><path d="M34.752,9.548A1.872,1.872,0,0,1,37.4,12.2L18.682,30.912a1.873,1.873,0,0,1-2.647,0L8.548,23.425A1.872,1.872,0,1,1,11.2,20.778l6.163,6.163Z" transform="translate(6.973 13.46)"/></svg>