<svg xmlns="http://www.w3.org/2000/svg" width="59.108" height="59.894" viewBox="0 0 59.108 59.894"><path d="M7.743,32.075v26.2A1.872,1.872,0,0,0,9.615,60.15H17.1a1.872,1.872,0,0,0,1.872-1.872v-26.2A1.872,1.872,0,0,0,17.1,30.2H9.615A1.872,1.872,0,0,0,7.743,32.075Zm13.1-4.185,3.3-6.6a21.914,21.914,0,0,0,2.314-9.8v-.936A6.551,6.551,0,0,1,33.011,4a7.042,7.042,0,0,1,7.007,6.341l1.238,12.375H53.749a9.359,9.359,0,0,1,9.312,10.29l-2.246,22.46A9.358,9.358,0,0,1,51.5,63.894H28.332a9.327,9.327,0,0,1-6.485-2.611A5.611,5.611,0,0,1,17.1,63.894H9.615A5.615,5.615,0,0,1,4,58.279v-26.2A5.615,5.615,0,0,1,9.615,26.46H17.1A5.593,5.593,0,0,1,20.845,27.89Zm1.872,4.627V54.535a5.615,5.615,0,0,0,5.615,5.615H51.5a5.615,5.615,0,0,0,5.587-5.056l2.246-22.46c.018-.186.028-.372.028-.559a5.615,5.615,0,0,0-5.615-5.615H39.562A1.871,1.871,0,0,1,37.7,24.775L36.294,10.714a3.3,3.3,0,0,0-3.283-2.971A2.808,2.808,0,0,0,30.2,10.551v.936a25.656,25.656,0,0,1-2.709,11.474Z" transform="translate(-4 -4)"/></svg>